<svg width="32" height="32" viewBox="0 0 32 32" fill="none" xmlns="http://www.w3.org/2000/svg">
<path d="M10.7976 23.2634C11.1426 22.8321 11.0726 22.2028 10.6414 21.8578C10.2101 21.5128 9.58082 21.5827 9.23581 22.014L10.7976 23.2634ZM6.08827 25.9484C5.74326 26.3797 5.81318 27.009 6.24445 27.354C6.67571 27.699 7.305 27.6291 7.65001 27.1978L6.08827 25.9484ZM15.7156 23.2634C16.0606 22.8321 15.9907 22.2028 15.5594 21.8578C15.1281 21.5128 14.4989 21.5827 14.1538 22.014L15.7156 23.2634ZM7.85876 29.8828C7.51375 30.3141 7.58368 30.9434 8.01494 31.2884C8.4462 31.6334 9.07549 31.5635 9.4205 31.1322L7.85876 29.8828ZM20.6336 23.2634C20.9786 22.8321 20.9087 22.2028 20.4774 21.8578C20.0462 21.5128 19.4169 21.5827 19.0719 22.014L20.6336 23.2634ZM15.9243 25.9484C15.5793 26.3797 15.6492 27.009 16.0805 27.354C16.5118 27.699 17.1411 27.6291 17.4861 27.1978L15.9243 25.9484ZM25.5516 23.2634C25.8967 22.8321 25.8267 22.2028 25.3955 21.8578C24.9642 21.5128 24.3349 21.5827 23.9899 22.014L25.5516 23.2634ZM17.6948 29.8828C17.3498 30.3141 17.4197 30.9434 17.851 31.2884C18.2823 31.6334 18.9116 31.5635 19.2566 31.1322L17.6948 29.8828ZM9.23581 22.014L6.08827 25.9484L7.65001 27.1978L10.7976 23.2634L9.23581 22.014ZM14.1538 22.014L7.85876 29.8828L9.4205 31.1322L15.7156 23.2634L14.1538 22.014ZM19.0719 22.014L15.9243 25.9484L17.4861 27.1978L20.6336 23.2634L19.0719 22.014ZM23.9899 22.014L17.6948 29.8828L19.2566 31.1322L25.5516 23.2634L23.9899 22.014Z" fill="#046FDB"/>
<path d="M9.77027 10.8356C7.11442 10.751 5.00602 8.57209 5.00879 5.91489C5.01157 3.2577 7.12451 1.08321 9.78053 1.00417C12.4366 0.925129 14.6751 2.97012 14.8358 5.62245" stroke="#FDC066" stroke-width="2" stroke-linecap="round" stroke-linejoin="round"/>
<path fill-rule="evenodd" clip-rule="evenodd" d="M24.5735 18.7049C27.2979 18.7325 29.536 16.5602 29.5898 13.8361C29.536 11.112 27.2979 8.93973 24.5735 8.96724H24.0816C23.0074 6.4831 20.5419 4.89122 17.8357 4.93445C14.5211 4.8979 11.6873 7.31185 11.1964 10.5902H11.1472C8.90639 10.5902 7.08984 12.4067 7.08984 14.6476C7.08984 16.8884 8.90639 18.7049 11.1472 18.7049H24.5735Z" stroke="#046FDB" stroke-width="2" stroke-linecap="round" stroke-linejoin="round"/>
</svg>
