<svg width="40" height="40" viewBox="0 0 40 40" fill="none" xmlns="http://www.w3.org/2000/svg">
<path fill-rule="evenodd" clip-rule="evenodd" d="M8.86325 40H32.5664C33.0285 40 33 39.6254 33 39.1634V3.72086C33 3.25877 33.0285 2.88422 32.5664 2.88422H31.62V0.836637C31.62 0.374555 31.2455 0 30.7834 0H22.9173C22.4553 0 22.0807 0.374555 22.0807 0.836637V2.88422H8.86325C8.40117 2.88422 8.02661 3.25877 8.02661 3.72086V39.1634C8.02661 39.6254 8.40117 40 8.86325 40ZM29.9466 1.94559V2.88422H24.0312V1.94559H29.9466ZM31 8.07581H9.99995V5H31V8.07581ZM9.99995 33.1351V9.74909H31V33.1351L9.99995 33.1351ZM9.99995 34.8084H31V38.3267H9.99995V34.8084Z" fill="#9013FE"/>
<path fill-rule="evenodd" clip-rule="evenodd" d="M23.9088 22.5874C23.9088 20.1123 20.0573 14.3323 19.6181 13.6812C19.4625 13.4507 19.2026 13.3125 18.9245 13.3125C18.6464 13.3125 18.3864 13.4507 18.2309 13.6812C17.7917 14.3321 13.9402 20.1122 13.9402 22.5874C13.9404 25.3357 16.1764 27.5716 18.9246 27.5716C21.6729 27.5716 23.9088 25.3357 23.9088 22.5874ZM22.2354 22.5874C22.2354 24.4131 20.7502 25.8982 18.9246 25.8982C17.099 25.8982 15.6137 24.413 15.6137 22.5874C15.6137 21.3134 17.4311 18.0324 18.9247 15.6787C20.4183 18.0318 22.2354 21.3122 22.2354 22.5874Z" fill="#9013FE"/>
<path fill-rule="evenodd" clip-rule="evenodd" d="M29 20.6514V20.3366C29 19.8746 28.5523 19.5 28 19.5C27.4477 19.5 27 19.8746 27 20.3366V20.6514C27 21.1134 27.4477 21.488 28 21.488C28.5523 21.488 29 21.1135 29 20.6514Z" fill="#9013FE"/>
<path fill-rule="evenodd" clip-rule="evenodd" d="M29 31.123V22.877C29 22.3926 28.5523 22 28 22C27.4477 22 27 22.3926 27 22.877V31.123C27 31.6074 27.4477 32 28 32C28.5523 32 29 31.6074 29 31.123Z" fill="#9013FE"/>
</svg>
