<svg width="40" height="40" viewBox="0 0 40 40" fill="none" xmlns="http://www.w3.org/2000/svg">
<path fill-rule="evenodd" clip-rule="evenodd" d="M28.2707 23.6389L15.0216 36.5936L12.9088 34.5269C13.4807 33.742 13.7098 32.9136 13.7098 31.7011C13.7098 28.4931 11.2352 26.0736 7.9543 26.0736C6.71521 26.0736 5.86703 26.2976 5.0643 26.8567L2.95066 24.7909L16.1998 11.8362L18.1388 13.7331L19.6152 12.2896L17.6752 10.3936L24.4452 3.77401L26.5588 5.84067C25.987 6.62556 25.7579 7.45401 25.7579 8.66645C25.7579 11.8744 28.2325 14.2931 31.5134 14.2931C32.7525 14.2931 33.5998 14.0691 34.4034 13.5109L36.5161 15.5767L29.7461 22.1962L27.807 20.3002L26.3316 21.7429L28.2707 23.6389ZM34.4579 10.678L33.7207 11.3998C33.027 12.0771 32.5734 12.2522 31.5134 12.2522C29.3879 12.2522 27.8452 10.7447 27.8452 8.66645C27.8452 7.62912 28.0243 7.18556 28.717 6.50823L29.4552 5.78645L24.4452 0.888672L-0.000244141 24.7909L5.00976 29.6887L5.74703 28.9678C6.43976 28.2896 6.89339 28.1145 7.9543 28.1145C10.0798 28.1145 11.6225 29.6229 11.6225 31.7011C11.6225 32.7384 11.4434 33.182 10.7507 33.8593L10.0125 34.5811L15.0216 39.4789L39.467 15.5767L34.4579 10.678Z" fill="#FDC066"/>
<path fill-rule="evenodd" clip-rule="evenodd" d="M20.15 12.8145L18.6746 14.258L21.6727 17.1896L23.1482 15.7469L20.15 12.8145Z" fill="#FDC066"/>
<path fill-rule="evenodd" clip-rule="evenodd" d="M24.2728 16.8457L22.7974 18.2884L25.7955 21.2208L27.271 19.7781L24.2728 16.8457Z" fill="#FDC066"/>
</svg>
