<svg width="40" height="40" viewBox="0 0 40 40" fill="none" xmlns="http://www.w3.org/2000/svg">
<path fill-rule="evenodd" clip-rule="evenodd" d="M2.07848 37.9473V7.04604H22.7527V22.1367C22.7527 22.7035 23.218 23.163 23.7919 23.163C24.3659 23.163 24.8312 22.7035 24.8312 22.1367V6.01969C24.8312 5.45284 24.3659 4.99335 23.7919 4.99335H23.3034V1.02633C23.3034 0.733003 23.1763 0.453632 22.9542 0.258833C22.7321 0.0641355 22.4362 -0.0274142 22.1413 0.00717353L0.916297 2.50396C0.39356 2.56543 0 3.00317 0 3.52311V38.9736C0 39.5405 0.465267 40 1.03924 40H14.8633C15.4373 40 15.9025 39.5405 15.9025 38.9736C15.9025 38.4068 15.4373 37.9473 14.8633 37.9473H2.07848ZM21.2249 2.1822V4.99345H2.07848V4.4344L21.2249 2.1822ZM9.62616 33.9803C9.62616 33.4134 10.0914 32.9539 10.6654 32.9539H14.1657C14.7396 32.9539 15.2049 33.4134 15.2049 33.9803C15.2049 34.5471 14.7396 35.0066 14.1657 35.0066H10.6654C10.0914 35.0066 9.62616 34.5471 9.62616 33.9803Z" fill="#F15B40"/>
<path fill-rule="evenodd" clip-rule="evenodd" d="M28.8482 26.1012C33.4997 26.1012 37.3448 29.5762 37.8622 34.0353H19.8343C20.3516 29.5762 24.1968 26.1012 28.8482 26.1012ZM22.3032 37.947V36.0879H35.3931V37.947H22.3032ZM37.4717 37.947V36.0879H38.9606C39.5346 36.0879 39.9999 35.6284 39.9999 35.0616C39.9999 29.3351 35.5509 24.6153 29.8876 24.0958V22.3213C29.8876 21.7544 29.4223 21.2949 28.8483 21.2949C28.2744 21.2949 27.8091 21.7544 27.8091 22.3213V24.0958C22.1457 24.6153 17.6968 29.3351 17.6968 35.0616C17.6968 35.6284 18.162 36.0879 18.736 36.0879H20.2249V37.947H18.736C18.162 37.947 17.6968 38.4065 17.6968 38.9734C17.6968 39.5402 18.162 39.9997 18.736 39.9997H21.2437C21.2573 40 36.4121 39.9997 36.4121 39.9997C36.4392 39.9999 38.9609 39.9997 38.9609 39.9997C39.5348 39.9997 40.0001 39.5402 40.0001 38.9734C40.0001 38.4065 39.5347 37.947 38.9609 37.947H37.4717Z" fill="#F15B40"/>
<path fill-rule="evenodd" clip-rule="evenodd" d="M9.04845 13.9137C9.04845 13.027 10.4313 12.0389 12.4156 12.0389C14.3998 12.0389 15.7826 13.027 15.7826 13.9137C15.7826 14.8004 14.3998 15.7883 12.4156 15.7883C10.4313 15.7883 9.04845 14.8005 9.04845 13.9137ZM6.96997 13.9138C6.96997 16.1161 9.36199 17.8411 12.4156 17.8411C15.4692 17.8411 17.8611 16.1161 17.8611 13.9138C17.8611 11.7114 15.4692 9.98633 12.4156 9.98633C9.36199 9.98633 6.96997 11.7115 6.96997 13.9138Z" fill="#F15B40"/>
</svg>
