<svg width="32" height="32" viewBox="0 0 32 32" fill="none" xmlns="http://www.w3.org/2000/svg">
<path d="M31 15.9992C31 12.4094 28.0899 9.49925 24.5 9.49925H24.25C22.703 6.06773 19.0834 4.06231 15.3537 4.57037C11.6241 5.07844 8.67274 7.97898 8.1 11.6992C6.50837 11.209 4.78033 11.4664 3.40063 12.3991C2.02093 13.3319 1.13818 14.8396 1 16.4992" stroke="#046FDB" stroke-width="2" stroke-linecap="round" stroke-linejoin="round"/>
<path d="M1 18.5C0.447715 18.5 0 18.9477 0 19.5C0 20.0523 0.447715 20.5 1 20.5V18.5ZM31 20.5C31.5523 20.5 32 20.0523 32 19.5C32 18.9477 31.5523 18.5 31 18.5V20.5ZM4 22.5C3.44772 22.5 3 22.9477 3 23.5C3 24.0523 3.44772 24.5 4 24.5V22.5ZM29 24.5C29.5523 24.5 30 24.0523 30 23.5C30 22.9477 29.5523 22.5 29 22.5V24.5ZM6 26.5C5.44772 26.5 5 26.9477 5 27.5C5 28.0523 5.44772 28.5 6 28.5V26.5ZM14 28.5C14.5523 28.5 15 28.0523 15 27.5C15 26.9477 14.5523 26.5 14 26.5V28.5ZM18 26.5C17.4477 26.5 17 26.9477 17 27.5C17 28.0523 17.4477 28.5 18 28.5V26.5ZM28 28.5C28.5523 28.5 29 28.0523 29 27.5C29 26.9477 28.5523 26.5 28 26.5V28.5ZM1 20.5H31V18.5H1V20.5ZM4 24.5H29V22.5H4V24.5ZM6 28.5H14V26.5H6V28.5ZM18 28.5H28V26.5H18V28.5Z" fill="#046FDB"/>
</svg>
