<svg width="40" height="40" viewBox="0 0 40 40" fill="none" xmlns="http://www.w3.org/2000/svg">
<path fill-rule="evenodd" clip-rule="evenodd" d="M32.459 9.80594C31.939 9.70758 26.099 8.68414 23.0085 11.5305C22.9895 11.548 22.9724 11.5667 22.9538 11.5843V10.5365C24.6266 9.51313 25.6796 7.66703 25.6796 5.68266C25.6796 2.5493 23.1303 0 19.9969 0C16.8636 0 14.3143 2.5493 14.3143 5.68266C14.3143 7.66695 15.3671 9.51297 17.0401 10.5365V11.5843C17.0214 11.5666 17.0043 11.548 16.9854 11.5305C13.041 7.89805 2.62129 9.60914 0.375586 13.6928C-0.177617 14.6988 -0.0176169 15.5095 0.214024 16.0126C0.811602 17.3101 2.59723 17.9864 4.90582 17.8799C4.63676 18.7834 4.90824 19.4458 5.0966 19.7628C5.72957 20.8279 7.17855 21.2946 9.03035 21.0837C8.96105 22.1727 9.35887 23.0823 10.1832 23.6085C12.2721 24.942 15.3041 23.0505 17.04 20.9734V23.5679C8.63082 24.6595 8.69027 29.7406 16.2957 31.0255C13.7443 31.573 12.2662 32.6598 12.2662 34.0494C12.2662 35.5698 14.0365 36.7274 17.0455 37.2129C17.1338 38.7645 18.4236 40 19.997 40C21.5704 40 22.8602 38.7645 22.9482 37.2129C25.9572 36.7274 27.7275 35.5698 27.7275 34.0494C27.7275 32.6598 26.2495 31.5729 23.698 31.0255C31.4147 29.7219 31.2453 24.6443 22.9537 23.5679V20.9734C23.8829 22.0852 25.0793 23.0516 26.3137 23.5989C29.1418 24.853 31.1061 23.3255 30.9635 21.0839C34.2785 21.4613 35.6173 19.657 35.088 17.88C37.3964 17.9854 39.1824 17.31 39.78 16.0127C41.0183 13.3231 36.8129 10.4004 32.459 9.80594ZM16.9781 17.2758C16.5332 19.8957 12.5669 22.9666 11.1645 22.0713C10.6901 21.7684 10.8102 20.9368 11.0807 20.2596C11.3582 19.5652 10.7223 18.843 9.99434 19.0415C8.09176 19.5598 6.90191 19.2306 6.66457 18.8312C6.52551 18.5971 6.68254 18.0509 7.34691 17.3581C7.96598 16.7125 7.37574 15.6487 6.49879 15.8351C3.9091 16.387 2.14691 15.8497 1.87074 15.2497C1.41723 14.2657 4.75551 11.2045 10.9689 11.3713C15.114 11.4807 17.4568 13.1903 16.9781 17.2758ZM18.9324 35.5866C18.9095 35.5853 18.8869 35.5834 18.8642 35.5819C18.8642 33.8754 18.8642 33.0162 18.8642 31.2975C19.6131 31.3331 20.4342 31.3305 21.1297 31.2975C21.1297 33.0163 21.1297 33.875 21.1297 35.5819C20.4054 35.6282 19.7049 35.6328 18.9324 35.5866ZM21.1297 29.4703C20.3887 29.5088 19.6628 29.5101 18.9079 29.4727C18.8933 29.472 18.8787 29.471 18.8642 29.4703C18.8642 29.4235 18.8638 24.3025 18.8638 11.255C19.6107 11.408 20.3954 11.4054 21.13 11.255C21.13 12.2794 21.1297 28.8621 21.1297 29.4703ZM19.9969 1.82367C22.1247 1.82367 23.8559 3.55484 23.8559 5.68266C23.8559 7.16555 22.9903 8.53492 21.6509 9.17125C20.5732 9.68266 19.363 9.65539 18.3429 9.17125C17.0035 8.53477 16.1379 7.16539 16.1379 5.68266C16.1379 3.55492 17.8692 1.82367 19.9969 1.82367ZM12.5032 27.3521C12.5032 26.8459 14.0189 25.8413 17.04 25.4079V29.2962C14.0189 28.8627 12.5032 27.8584 12.5032 27.3521ZM14.09 34.0494C14.09 33.8695 14.8818 33.1416 17.0406 32.738V35.3605C14.8818 34.9571 14.09 34.2291 14.09 34.0494ZM18.9263 37.4137C19.6494 37.4529 20.4378 37.4479 21.0675 37.4137C20.7161 38.4278 19.2777 38.4273 18.9263 37.4137ZM25.9039 34.0494C25.9039 34.2292 25.1121 34.9571 22.9534 35.3606V32.738C25.1121 33.1415 25.9039 33.8695 25.9039 34.0494ZM27.4907 27.3521C27.4907 27.8584 25.9749 28.8629 22.9538 29.2963V25.408C25.975 25.8413 27.4907 26.8457 27.4907 27.3521ZM38.1234 15.2496C37.8471 15.8496 36.0846 16.3867 33.4952 15.835C32.617 15.6484 32.0288 16.7133 32.6471 17.358C33.3114 18.0508 33.4685 18.597 33.3294 18.8311C33.0922 19.2302 31.9021 19.5596 29.9997 19.0414C29.2744 18.8434 28.6349 19.5627 28.9133 20.2595C29.6346 22.0646 28.6725 22.6495 27.0532 21.9315C25.1826 21.102 23.2963 18.9267 23.016 17.2757C22.5372 13.1907 24.8794 11.4807 29.0252 11.3712C35.2891 11.2041 38.5672 14.2851 38.1234 15.2496Z" fill="#24DCB3"/>
</svg>
