<svg width="32" height="32" viewBox="0 0 32 32" fill="none" xmlns="http://www.w3.org/2000/svg">
<path d="M7.94999 17.3033C6.08732 13.4306 7.10312 8.75372 10.3935 6.05293C13.6839 3.35215 18.366 3.35215 21.6565 6.05293C24.9469 8.75372 25.9627 13.4306 24.1 17.3033" stroke="#FDC066" stroke-width="2" stroke-linecap="round" stroke-linejoin="round"/>
<path d="M4 16.3027C3.44772 16.3027 3 16.7504 3 17.3027C3 17.855 3.44772 18.3027 4 18.3027V16.3027ZM28 18.3027C28.5523 18.3027 29 17.855 29 17.3027C29 16.7504 28.5523 16.3027 28 16.3027V18.3027ZM1 20.3958C0.447715 20.3958 0 20.8435 0 21.3958C0 21.948 0.447715 22.3958 1 22.3958V20.3958ZM31 22.3958C31.5523 22.3958 32 21.948 32 21.3958C32 20.8435 31.5523 20.3958 31 20.3958V22.3958ZM9 24.4888C8.44772 24.4888 8 24.9365 8 25.4888C8 26.0411 8.44772 26.4888 9 26.4888V24.4888ZM24 26.4888C24.5523 26.4888 25 26.0411 25 25.4888C25 24.9365 24.5523 24.4888 24 24.4888V26.4888ZM4 18.3027H28V16.3027H4V18.3027ZM1 22.3958H31V20.3958H1V22.3958ZM9 26.4888H24V24.4888H9V26.4888Z" fill="#046FDB"/>
</svg>
