<svg width="40" height="40" viewBox="0 0 40 40" fill="none" xmlns="http://www.w3.org/2000/svg">
<path fill-rule="evenodd" clip-rule="evenodd" d="M27.6805 11.2288C27.3159 11.3785 27.0754 11.4772 26.4887 11.4772C25.903 11.4772 25.6625 11.3785 25.297 11.2288C25.1583 11.1711 25.0022 11.1078 24.8208 11.0465L25.9661 8.2511C26.1959 7.68738 25.9059 7.04924 25.3183 6.82785C25.0351 6.71994 24.7229 6.72552 24.4436 6.84273C24.1624 6.95994 23.9462 7.17576 23.8356 7.44831L22.4422 10.8492C21.8419 10.9274 21.4405 11.092 21.1079 11.2288C20.7433 11.3785 20.5028 11.4772 19.9181 11.4772C19.3333 11.4772 19.0938 11.3785 18.7263 11.2278C18.2647 11.0381 17.6907 10.8018 16.6356 10.8018C15.5806 10.8018 15.0065 11.0381 14.543 11.2288C14.1794 11.3785 13.9389 11.4772 13.3551 11.4772C12.7704 11.4772 12.5299 11.3785 12.1653 11.2288C11.7804 11.0697 11.3101 10.8762 10.5411 10.8195L6.79514 6.24738L33.0526 6.24552L29.3067 10.8195C28.5387 10.8772 28.0674 11.0706 27.6805 11.2288ZM13.3551 13.6725C14.4111 13.6725 14.9852 13.4372 15.4468 13.2465C15.8104 13.0967 16.0499 12.9981 16.6356 12.9981C17.2213 12.9981 17.4618 13.0967 17.8254 13.2465C18.287 13.4372 18.8611 13.6725 19.9181 13.6725C20.9731 13.6725 21.5481 13.4372 22.0116 13.2465C22.3753 13.0967 22.6158 12.9981 23.2024 12.9981C23.7901 12.9981 24.0305 13.0967 24.3951 13.2465C24.8577 13.4372 25.4327 13.6725 26.4887 13.6725C26.6671 13.6725 26.832 13.666 26.9842 13.6539L19.9239 22.2744L12.8635 13.6539C13.0148 13.6669 13.1777 13.6725 13.3551 13.6725ZM19.7435 37.2409C19.9051 37.0471 20.0617 36.8484 20.2132 36.6474C20.3672 36.8484 20.5238 37.0471 20.6854 37.2409H19.7435ZM25.4599 4.0511C25.6829 3.6325 26.2085 3.43622 26.6739 3.6111C26.897 3.69483 27.0734 3.85483 27.1782 4.0511H25.4599ZM35.4594 6.86134C35.8909 6.3339 35.9694 5.6325 35.664 5.02878C35.3585 4.42599 34.7341 4.0511 34.0359 4.0511H29.5442C29.4376 3.30971 29.0584 2.62878 28.4718 2.13203L28.7307 1.50041C28.9614 0.937616 28.6715 0.298546 28.0839 0.0771511C27.7998 -0.0307558 27.4875 -0.0251744 27.2082 0.0920349C26.928 0.209244 26.7118 0.424128 26.6002 0.696686L26.3316 1.35064C24.9954 1.35064 23.7842 2.12645 23.2897 3.33297L22.9968 4.0511H5.81284C5.11466 4.0511 4.49018 4.42599 4.18472 5.02878C3.87927 5.6325 3.95781 6.33483 4.38933 6.86134L19.0091 24.4306V33.2465C19.0091 35.2474 17.0836 36.8744 14.9978 36.8744H12.8878C12.2565 36.8744 11.7425 37.3665 11.7425 37.973C11.7425 38.5785 12.2565 39.0706 12.8878 39.0706H26.961C27.5922 39.0706 28.1062 38.5785 28.1062 37.973C28.1062 37.3665 27.5922 36.8744 26.961 36.8744H24.8509C22.7651 36.8744 21.0691 35.2474 21.0691 33.2465V24.4306L35.4594 6.86134Z" fill="#FE4365"/>
<path fill-rule="evenodd" clip-rule="evenodd" d="M22.6261 14.0354C22.3822 13.9338 22.1107 13.929 21.862 14.0218C21.6142 14.1164 21.4196 14.2967 21.3144 14.5323L19.4482 18.6799C19.2305 19.1647 19.464 19.7304 19.9689 19.9416C20.0846 19.9903 20.2059 20.0169 20.3309 20.0213C20.7447 20.0357 21.1175 19.8095 21.2806 19.4448L23.1458 15.2962C23.3645 14.8124 23.131 14.2467 22.6261 14.0354Z" fill="#FE4365"/>
</svg>
