<svg width="16" height="17" viewBox="0 0 16 17" fill="none" xmlns="http://www.w3.org/2000/svg">
<path d="M9 1.93333V1H7V1.93333H9ZM8.86667 15.0667C8.86667 15.0298 8.89651 15 8.93333 15V17C10.0011 17 10.8667 16.1344 10.8667 15.0667H8.86667ZM8.93333 15C8.97015 15 9 15.0298 9 15.0667H7C7 16.1344 7.86558 17 8.93333 17V15ZM9 15.0667V9.93333H7V15.0667H9Z" fill="#046FDB"/>
<path d="M2 9.93359C2 7.79 3.14359 5.80924 5 4.73744L4 3.00539C1.52479 4.43445 0 7.07547 0 9.93359H2ZM5 4.73744C6.85641 3.66564 9.14359 3.66564 11 4.73744L12 3.00539C9.52479 1.57633 6.47521 1.57633 4 3.00539L5 4.73744ZM11 4.73744C12.8564 5.80924 14 7.79 14 9.93359H16C16 7.07547 14.4752 4.43445 12 3.00539L11 4.73744ZM1.83333 10.4864C2.03714 10.1791 2.38131 9.99441 2.75 9.99441V7.99441C1.71096 7.99441 0.741018 8.51496 0.166667 9.38082L1.83333 10.4864ZM2.75 9.99441C3.11869 9.99441 3.46286 10.1791 3.66667 10.4864L5.33333 9.38082C4.75898 8.51496 3.78904 7.99441 2.75 7.99441V9.99441ZM5.33333 10.4864C5.53714 10.1791 5.88131 9.99441 6.25 9.99441V7.99441C5.21096 7.99441 4.24102 8.51496 3.66667 9.38082L5.33333 10.4864ZM6.25 9.99441C6.61869 9.99441 6.96286 10.1791 7.16667 10.4864L8.83333 9.38082C8.25898 8.51496 7.28904 7.99441 6.25 7.99441V9.99441ZM8.83333 10.4864C9.03714 10.1791 9.38131 9.99441 9.75 9.99441V7.99441C8.71096 7.99441 7.74102 8.51496 7.16667 9.38082L8.83333 10.4864ZM9.75 9.99441C10.1187 9.99441 10.4629 10.1791 10.6667 10.4864L12.3333 9.38082C11.759 8.51496 10.789 7.99441 9.75 7.99441V9.99441ZM12.3333 10.4864C12.5371 10.1791 12.8813 9.99441 13.25 9.99441V7.99441C12.211 7.99441 11.241 8.51496 10.6667 9.38082L12.3333 10.4864ZM13.25 9.99441C13.6187 9.99441 13.9629 10.1791 14.1667 10.4864L15.8333 9.38082C15.259 8.51496 14.289 7.99441 13.25 7.99441V9.99441Z" fill="#046FDB"/>
</svg>
