<svg width="40" height="40" viewBox="0 0 40 40" fill="none" xmlns="http://www.w3.org/2000/svg">
<path fill-rule="evenodd" clip-rule="evenodd" d="M19.9567 32.1983C15.4684 32.1983 10.6378 30.443 5.98736 27.122C2.51088 24.6395 0.365147 22.1799 0.275485 22.0763C-0.0918284 21.6522 -0.0918284 21.0227 0.275485 20.5985C0.365147 20.495 2.51079 18.0353 5.98736 15.5528C10.6379 12.232 15.4684 10.4766 19.9567 10.4766C24.445 10.4766 29.2756 12.232 33.926 15.5528C37.4024 18.0353 39.5482 20.4949 39.6378 20.5985C40.0051 21.0226 40.0051 21.6521 39.6378 22.0763C39.5482 22.1798 37.4025 24.6395 33.926 27.122C29.2756 30.4429 24.4451 32.1983 19.9567 32.1983ZM2.67612 21.3375C3.54384 22.2223 5.18149 23.7781 7.34375 25.3168C10.3081 27.4262 14.9026 29.9409 19.9567 29.9409C25.0107 29.9409 29.6053 27.4262 32.5696 25.3168C34.7316 23.7784 36.3693 22.2224 37.2372 21.3375C36.3696 20.4527 34.7318 18.8969 32.5696 17.3582C29.6053 15.2488 25.0107 12.7341 19.9567 12.7341C14.9026 12.7341 10.3081 15.2488 7.34375 17.3582C5.18176 18.8966 3.54402 20.4525 2.67612 21.3375Z" fill="#046FDB"/>
<path fill-rule="evenodd" clip-rule="evenodd" d="M19.9567 28.4017C16.0981 28.4017 12.959 25.2625 12.959 21.404C12.959 17.5455 16.0981 14.4062 19.9567 14.4062C21.6537 14.4062 23.2907 15.0215 24.566 16.1388C25.0349 16.5495 25.0821 17.2626 24.6713 17.7315C24.2606 18.2004 23.5474 18.2474 23.0786 17.8368C22.2151 17.0802 21.1063 16.6636 19.9566 16.6636C17.3427 16.6636 15.2162 18.7902 15.2162 21.404C15.2162 24.0178 17.3427 26.1444 19.9566 26.1444C22.5706 26.1444 24.697 24.0178 24.697 21.404C24.697 20.7807 25.2024 20.2753 25.8257 20.2753C26.449 20.2753 26.9544 20.7807 26.9544 21.404C26.9546 25.2625 23.8153 28.4017 19.9567 28.4017Z" fill="#046FDB"/>
<path fill-rule="evenodd" clip-rule="evenodd" d="M19.9566 23.6612C18.7119 23.6612 17.6992 22.6485 17.6992 21.4038C17.6992 20.1591 18.7119 19.1465 19.9566 19.1465C21.2013 19.1465 22.2139 20.1591 22.2139 21.4038C22.2139 22.6485 21.2013 23.6612 19.9566 23.6612Z" fill="#046FDB"/>
<path d="M20.9524 1.16918C20.9524 0.643192 20.526 0.216797 20 0.216797C19.474 0.216797 19.0476 0.643192 19.0476 1.16918V7.08401C19.0476 7.61 19.474 8.0364 20 8.0364C20.526 8.0364 20.9524 7.61 20.9524 7.08401V1.16918Z" fill="#046FDB"/>
<path d="M7.18504 4.62283C6.92205 4.16732 6.33958 4.01125 5.88406 4.27424C5.42855 4.53723 5.27248 5.1197 5.53547 5.57521L8.5344 10.7695C8.7974 11.225 9.37986 11.3811 9.83538 11.1181C10.2909 10.8551 10.447 10.2727 10.184 9.81714L7.18504 4.62283Z" fill="#046FDB"/>
<path d="M34.7225 5.12795C34.9855 4.67243 34.8295 4.08997 34.374 3.82697C33.9184 3.56398 33.336 3.72005 33.073 4.17557L29.8621 9.73691C29.5991 10.1924 29.7552 10.7749 30.2107 11.0379C30.6662 11.3009 31.2487 11.1448 31.5117 10.6893L34.7225 5.12795Z" fill="#046FDB"/>
<path d="M7.43278 36.2265C7.66532 36.3551 7.93325 36.4978 8.23345 36.651C9.08789 37.0871 10.0332 37.5227 11.0447 37.9295C13.5275 38.9279 15.9975 39.5921 18.3316 39.7635C18.7184 39.792 19.0992 39.8064 19.4738 39.8064C20.2176 39.8064 20.9946 39.7575 21.8012 39.6632C23.8169 39.4276 25.9554 38.9201 28.1243 38.2223C29.1929 37.8785 30.2003 37.5103 31.1173 37.1417C31.4392 37.0124 31.7272 36.892 31.9777 36.7836C32.1301 36.7176 32.2374 36.6697 32.296 36.6428C32.774 36.4234 32.9835 35.8579 32.7641 35.3799C32.5446 34.9019 31.9792 34.6923 31.5012 34.9118C31.455 34.933 31.3605 34.9752 31.2212 35.0355C30.9857 35.1374 30.713 35.2514 30.4069 35.3744C29.5298 35.7269 28.5642 36.0798 27.5409 36.4091C25.4811 37.0718 23.4586 37.5518 21.5802 37.7713C20.8441 37.8573 20.1405 37.9017 19.4738 37.9017C19.1466 37.9017 18.8123 37.889 18.4711 37.8639C16.3595 37.7088 14.0705 37.0933 11.7553 36.1623C10.7996 35.7779 9.9055 35.3659 9.09941 34.9545C8.81842 34.8111 8.56904 34.6783 8.35453 34.5596C8.22831 34.4898 8.14335 34.4412 8.1029 34.4174C7.64985 34.1501 7.06596 34.3008 6.79873 34.7538C6.5315 35.2069 6.68213 35.7908 7.13517 36.058C7.19052 36.0906 7.29077 36.148 7.43278 36.2265Z" fill="#046FDB"/>
</svg>
