<svg width="40" height="40" viewBox="0 0 40 40" fill="none" xmlns="http://www.w3.org/2000/svg">
<path fill-rule="evenodd" clip-rule="evenodd" d="M17.8728 7.5852H8.75856C9.02618 5.16383 10.9595 3.31993 13.3119 3.31993C15.6614 3.31993 17.5976 5.16383 17.8728 7.5852ZM20.0919 7.57616C19.8167 3.86025 16.91 1 13.329 1C9.80808 1 6.84523 3.91749 6.56618 7.57616H1.09951C0.492845 7.57616 -0.000488281 8.09639 -0.000488281 8.73613V34.2092C0.00903553 37.4019 2.47285 40 5.49189 40H14.8852C15.4919 40 15.9852 39.4788 15.9852 38.84C15.9852 38.2003 15.4919 37.6801 14.8852 37.6801H5.49189C3.67665 37.6801 2.19951 36.1224 2.19951 34.2082V9.89609H6.52999V12.8166C6.52999 13.4563 7.02332 13.9766 7.63094 13.9766C8.23665 13.9766 8.72999 13.4563 8.72999 12.8166V9.89609H17.91V12.8166C17.91 13.4563 18.4033 13.9766 19.01 13.9766C19.6167 13.9766 20.11 13.4563 20.11 12.8166V9.89609H24.4405V10.2717C24.4405 10.9114 24.9347 11.4317 25.5405 11.4317C26.1471 11.4317 26.6405 10.9114 26.6405 10.2717V8.73613C26.6405 8.09639 26.1471 7.57616 25.5405 7.57616H20.0919Z" fill="#7ED321"/>
<path fill-rule="evenodd" clip-rule="evenodd" d="M25.4274 19.4838V18.8222C25.4341 16.8713 26.9626 15.2842 28.8331 15.2842C30.7112 15.2842 32.2398 16.8703 32.2398 18.8203V19.4838H25.4274ZM24.336 24.6919C24.9417 24.6919 25.435 24.1797 25.435 23.5498V21.7591H32.2474V23.5498C32.2474 24.1797 32.7407 24.6919 33.3474 24.6919C33.9541 24.6919 34.4474 24.1797 34.4474 23.5498V21.7591H37.5131V36.0259C37.5131 36.9574 36.7836 37.7148 35.8864 37.7148H21.7883C20.8912 37.7148 20.1617 36.9574 20.1617 36.0259V21.7591H23.235V23.5498C23.235 24.1797 23.7283 24.6919 24.336 24.6919ZM38.6131 19.4749H34.4398V18.8123C34.4398 15.6075 31.9283 13 28.8417 13C25.7502 13 23.235 15.6105 23.235 18.8203V19.4838H19.0617C18.455 19.4838 17.9617 19.996 17.9617 20.6259V36.0259C17.9617 38.2171 19.6788 40 21.7883 40H35.8864C37.996 40 39.7131 38.2171 39.7131 36.0259V20.617C39.7131 19.9871 39.2198 19.4749 38.6131 19.4749Z" fill="#7ED321"/>
</svg>
