<svg width="24" height="24" viewBox="0 0 24 24" fill="none" xmlns="http://www.w3.org/2000/svg">
<path d="M16.9077 17.2656C17.2525 17.368 17.6734 17.4663 18.1777 17.5567C20.4617 17.969 22.3152 19.5719 22.9578 21.7124L23.3443 22.9999H0.806641L1.01544 21.8249C1.4065 19.6243 3.21767 17.9157 5.49927 17.5549C6.09136 17.4543 6.58515 17.3394 6.98809 17.2148C8.26328 18.8296 10.0196 19.8332 12 19.8332C13.9231 19.8332 15.6398 18.8466 16.9077 17.2656Z" fill="#046FDB"/>
<path d="M17.6666 10.2413C17.6666 14.2432 15.1913 17.6667 11.9999 17.6667C8.79754 17.6667 6.33325 14.3601 6.33325 10.381V7.02857C6.33325 3.2324 8.81162 1 11.9999 1C15.2257 1 17.6666 3.10309 17.6666 6.88889V10.2413Z" fill="#046FDB"/>
</svg>
