<svg width="24" height="24" viewBox="0 0 24 24" fill="none" xmlns="http://www.w3.org/2000/svg">
<path fill-rule="evenodd" clip-rule="evenodd" d="M23 2C23 1.44772 22.5523 1 22 1H2C1.44772 1 1 1.44772 1 2V22C1 22.5523 1.44772 23 2 23H22C22.5523 23 23 22.5523 23 22V2ZM18 19H6C5.44772 19 5 18.5523 5 18C5 17.4477 5.44772 17 6 17H18C18.5523 17 19 17.4477 19 18C19 18.5523 18.5523 19 18 19ZM18 5C18.5523 5 19 5.44772 19 6V14C19 14.5523 18.5523 15 18 15H6C5.44772 15 5 14.5523 5 14V6C5 5.44772 5.44772 5 6 5H18ZM7 13V7H17V13H7Z" fill="#046FDB"/>
</svg>
