<svg width="40" height="40" viewBox="0 0 40 40" fill="none" xmlns="http://www.w3.org/2000/svg">
<path d="M12.5074 34.7324C12.9831 34.4517 13.1412 33.8386 12.8606 33.363C12.5799 32.8873 11.9668 32.7292 11.4911 33.0098L12.5074 34.7324ZM5.49235 36.549C5.01668 36.8297 4.85858 37.4428 5.13921 37.9184C5.41985 38.3941 6.03296 38.5522 6.50863 38.2716L5.49235 36.549ZM28.1093 33.0099C27.6337 32.7292 27.0205 32.8872 26.7399 33.3629C26.4592 33.8385 26.6172 34.4516 27.0929 34.7323L28.1093 33.0099ZM33.0905 38.2715C33.5661 38.5522 34.1792 38.3942 34.4599 37.9185C34.7406 37.4429 34.5825 36.8298 34.1069 36.5491L33.0905 38.2715ZM11.4911 33.0098L5.49235 36.549L6.50863 38.2716L12.5074 34.7324L11.4911 33.0098ZM27.0929 34.7323L33.0905 38.2715L34.1069 36.5491L28.1093 33.0099L27.0929 34.7323Z" fill="#353B48"/>
<path d="M17.4 5.36582C17.9522 5.36582 18.4 4.91811 18.4 4.36582C18.4 3.81354 17.9522 3.36582 17.4 3.36582V5.36582ZM9.59995 4.36582V5.36582V4.36582ZM7.79995 17.5672L8.13006 18.5111C8.53127 18.3708 8.79995 17.9922 8.79995 17.5672H7.79995ZM31.8 17.5672H30.8C30.8 17.9922 31.0686 18.3708 31.4698 18.5111L31.8 17.5672ZM22.2 3.36523C21.6477 3.36523 21.2 3.81295 21.2 4.36523C21.2 4.91752 21.6477 5.36523 22.2 5.36523V3.36523ZM6.59995 23.4279C6.04767 23.4279 5.59995 23.8756 5.59995 24.4279C5.59995 24.9801 6.04767 25.4279 6.59995 25.4279V23.4279ZM33 25.4279C33.5522 25.4279 34 24.9801 34 24.4279C34 23.8756 33.5522 23.4279 33 23.4279V25.4279ZM17.4 3.36582H9.59995V5.36582H17.4V3.36582ZM9.59995 3.36582C8.0692 3.36582 6.79995 4.5907 6.79995 6.13632H8.79995C8.79995 5.7263 9.14248 5.36582 9.59995 5.36582V3.36582ZM6.79995 6.13632V17.5672H8.79995V6.13632H6.79995ZM7.46984 16.6233C6.97767 16.7954 6.56593 17.062 6.25437 17.4371C5.94671 17.8076 5.78589 18.2248 5.69942 18.6226C5.54358 19.3396 5.59995 20.2388 5.59995 20.8916H7.59995C7.59995 20.0046 7.55852 19.4857 7.65379 19.0474C7.69287 18.8676 7.74482 18.7729 7.793 18.7149C7.83727 18.6616 7.92443 18.5831 8.13006 18.5111L7.46984 16.6233ZM5.59995 20.8916V30.3295H7.59995V20.8916H5.59995ZM5.59995 30.3295C5.59995 32.8529 7.67509 34.8705 10.2 34.8705V32.8705C8.74836 32.8705 7.59995 31.7173 7.59995 30.3295H5.59995ZM10.2 34.8705H29.4V32.8705H10.2V34.8705ZM29.4 34.8705C31.9248 34.8705 34 32.8529 34 30.3295H32C32 31.7173 30.8515 32.8705 29.4 32.8705V34.8705ZM34 30.3295V20.8916H32V30.3295H34ZM34 20.8916C34 20.2388 34.0563 19.3396 33.9005 18.6226C33.814 18.2248 33.6532 17.8076 33.3455 17.4371C33.034 17.062 32.6222 16.7954 32.1301 16.6233L31.4698 18.5111C31.6755 18.5831 31.7626 18.6616 31.8069 18.7149C31.8551 18.7729 31.907 18.8676 31.9461 19.0474C32.0414 19.4857 32 20.0046 32 20.8916H34ZM32.8 17.5672V6.13573H30.8V17.5672H32.8ZM32.8 6.13573C32.8 4.59011 31.5307 3.36523 30 3.36523V5.36523C30.4574 5.36523 30.8 5.72571 30.8 6.13573H32.8ZM30 3.36523H22.2V5.36523H30V3.36523ZM6.59995 25.4279H33V23.4279H6.59995V25.4279Z" fill="#046FDB"/>
<ellipse cx="19.7999" cy="4.36261" rx="2.4" ry="2.36066" stroke="#FE4365" stroke-width="2" stroke-linecap="round" stroke-linejoin="round"/>
<ellipse cx="13.8001" cy="18.528" rx="1.2" ry="1.18033" stroke="#FE4365" stroke-width="2" stroke-linecap="round" stroke-linejoin="round"/>
<ellipse cx="25.8001" cy="18.528" rx="1.2" ry="1.18033" stroke="#FE4365" stroke-width="2" stroke-linecap="round" stroke-linejoin="round"/>
<path d="M7.80005 12.625H31.8" stroke="#046FDB" stroke-width="2" stroke-linecap="round" stroke-linejoin="round"/>
</svg>
