<svg width="24" height="24" viewBox="0 0 24 24" fill="none" xmlns="http://www.w3.org/2000/svg">
<path d="M15.2929 17.7071L20.2929 22.7071C20.6834 23.0976 21.3166 23.0976 21.7071 22.7071C22.0976 22.3166 22.0976 21.6834 21.7071 21.2929L16.7071 16.2929C16.3166 15.9024 15.6834 15.9024 15.2929 16.2929C14.9024 16.6834 14.9024 17.3166 15.2929 17.7071Z" fill="#046FDB"/>
<path fill-rule="evenodd" clip-rule="evenodd" d="M9.5 20C4.25329 20 0 15.7467 0 10.5C0 5.25329 4.25329 1 9.5 1C14.7467 1 19 5.25329 19 10.5C19 15.7467 14.7467 20 9.5 20ZM9.5 16C12.5376 16 15 13.5376 15 10.5C15 7.46243 12.5376 5 9.5 5C6.46243 5 4 7.46243 4 10.5C4 13.5376 6.46243 16 9.5 16ZM2 10.5C2 14.6421 5.35786 18 9.5 18C13.6421 18 17 14.6421 17 10.5C17 6.35786 13.6421 3 9.5 3C5.35786 3 2 6.35786 2 10.5Z" fill="#046FDB"/>
</svg>
