<svg width="16" height="16" viewBox="0 0 16 16" fill="none" xmlns="http://www.w3.org/2000/svg">
<path fill-rule="evenodd" clip-rule="evenodd" d="M12.7379 9.89C12.7062 9.50083 12.6263 9.11689 12.4998 8.74667C11.5474 5.38667 7.99982 1 7.99982 1C7.99982 1 4.4522 5.38667 3.47601 8.74667C3.34956 9.11689 3.2696 9.50083 3.23791 9.89C3.23791 10.0067 3.2141 10.1233 3.2141 10.24C3.20142 11.4941 3.69926 12.7014 4.59745 13.5948C5.49563 14.4881 6.72009 14.9939 7.99982 15C9.2754 14.9877 10.4937 14.4793 11.3868 13.5866C12.2798 12.6939 12.7744 11.4901 12.7617 10.24C12.7617 10.1233 12.7617 10.0067 12.7379 9.89Z" stroke="#046FDB" stroke-width="2" stroke-linecap="round" stroke-linejoin="round"/>
</svg>
