<svg width="40" height="40" viewBox="0 0 40 40" fill="none" xmlns="http://www.w3.org/2000/svg">
<path fill-rule="evenodd" clip-rule="evenodd" d="M37.0138 12.5257L35.4453 5.87443C35.0102 3.94812 33.0796 2.7298 31.1391 3.15796L2.82909 9.40015C0.8854 9.82879 -0.344794 11.7483 0.0859822 13.6767L3.7154 30.0676V34.3813C3.7154 36.3589 5.3354 37.9679 7.32656 37.9679H36.3256C38.3169 37.9679 39.9368 36.3589 39.9368 34.3813V25.2137V20.2877V16.0462C39.9368 14.3023 38.6769 12.8459 37.0138 12.5257ZM36.3255 14.7739C37.0318 14.7739 37.6066 15.3446 37.6066 16.046V19.1304H6.0455V16.046C6.0455 15.3446 6.62025 14.7739 7.32656 14.7739H36.3255ZM37.6067 24.0565H6.0455V21.4448H37.6067V24.0565ZM3.7154 16.0461V19.2931L2.36122 13.1774C2.20822 12.4924 2.64453 11.8115 3.33404 11.6594L31.6441 5.41734C32.3333 5.26518 33.0191 5.69873 33.1723 6.38368C33.1733 6.38802 33.1742 6.39236 33.1753 6.39661L34.6052 12.4594H7.32656C5.3353 12.4595 3.7154 14.0685 3.7154 16.0461ZM37.6067 34.3812C37.6067 35.0827 37.0319 35.6534 36.3256 35.6534H7.32656C6.62025 35.6534 6.0455 35.0826 6.0455 34.3812V29.9294C6.0455 29.9277 6.0455 29.926 6.0455 29.9242V26.3707H37.6067V34.3812Z" fill="#417505"/>
</svg>
