<svg width="40" height="40" viewBox="0 0 40 40" fill="none" xmlns="http://www.w3.org/2000/svg">
<path d="M12.2131 13.5459C8.89327 13.4402 6.25777 10.7166 6.26123 7.39508C6.2647 4.07358 8.90588 1.35548 12.2259 1.25668C15.5459 1.15788 18.3441 3.71412 18.545 7.02953" stroke="#FDC066" stroke-width="2" stroke-linecap="round" stroke-linejoin="round"/>
<path fill-rule="evenodd" clip-rule="evenodd" d="M30.7173 23.3802C34.1229 23.4146 36.9205 20.6992 36.9878 17.2941C36.9205 13.889 34.1229 11.1737 30.7173 11.2081H30.1025C28.7597 8.1029 25.6778 6.11304 22.2952 6.16709C18.1518 6.1214 14.6096 9.13883 13.996 13.2368H13.9345C11.1335 13.2368 8.86279 15.5074 8.86279 18.3085C8.86279 21.1095 11.1335 23.3802 13.9345 23.3802H30.7173Z" stroke="#046FDB" stroke-width="2" stroke-linecap="round" stroke-linejoin="round"/>
<path d="M30.6105 28.2988C30.6105 27.7465 30.1628 27.2988 29.6105 27.2988C29.0583 27.2988 28.6105 27.7465 28.6105 28.2988H30.6105ZM28.6105 38.1349C28.6105 38.6872 29.0583 39.1349 29.6105 39.1349C30.1628 39.1349 30.6105 38.6872 30.6105 38.1349H28.6105ZM25.6925 28.2988C25.6925 27.7465 25.2448 27.2988 24.6925 27.2988C24.1402 27.2988 23.6925 27.7465 23.6925 28.2988H25.6925ZM23.6925 34.4464C23.6925 34.9987 24.1402 35.4464 24.6925 35.4464C25.2448 35.4464 25.6925 34.9987 25.6925 34.4464H23.6925ZM20.7745 28.2988C20.7745 27.7465 20.3268 27.2988 19.7745 27.2988C19.2222 27.2988 18.7745 27.7465 18.7745 28.2988H20.7745ZM18.7745 38.1349C18.7745 38.6872 19.2222 39.1349 19.7745 39.1349C20.3268 39.1349 20.7745 38.6872 20.7745 38.1349H18.7745ZM15.8564 28.2988C15.8564 27.7465 15.4087 27.2988 14.8564 27.2988C14.3042 27.2988 13.8564 27.7465 13.8564 28.2988H15.8564ZM13.8564 34.4464C13.8564 34.9987 14.3042 35.4464 14.8564 35.4464C15.4087 35.4464 15.8564 34.9987 15.8564 34.4464H13.8564ZM28.6105 28.2988V38.1349H30.6105V28.2988H28.6105ZM23.6925 28.2988V34.4464H25.6925V28.2988H23.6925ZM18.7745 28.2988V38.1349H20.7745V28.2988H18.7745ZM13.8564 28.2988V34.4464H15.8564V28.2988H13.8564Z" fill="#046FDB"/>
</svg>
