<svg width="32" height="32" viewBox="0 0 32 32" fill="none" xmlns="http://www.w3.org/2000/svg">
<path d="M9.77027 10.8356C7.11442 10.751 5.00602 8.57209 5.00879 5.91489C5.01157 3.2577 7.12451 1.08321 9.78053 1.00417C12.4366 0.925129 14.6751 2.97012 14.8358 5.62245" stroke="#FDC066" stroke-width="2" stroke-linecap="round" stroke-linejoin="round"/>
<path fill-rule="evenodd" clip-rule="evenodd" d="M24.5735 18.7049C27.2979 18.7325 29.536 16.5602 29.5898 13.8361C29.536 11.112 27.2979 8.93973 24.5735 8.96724H24.0816C23.0074 6.4831 20.5419 4.89122 17.8357 4.93445C14.5211 4.8979 11.6873 7.31185 11.1964 10.5902H11.1472C8.90639 10.5902 7.08984 12.4067 7.08984 14.6476C7.08984 16.8884 8.90639 18.7049 11.1472 18.7049H24.5735Z" stroke="#046FDB" stroke-width="2" stroke-linecap="round" stroke-linejoin="round"/>
<path d="M24.688 22.6387C24.688 22.0864 24.2403 21.6387 23.688 21.6387C23.1358 21.6387 22.688 22.0864 22.688 22.6387H24.688ZM22.688 30.5075C22.688 31.0598 23.1358 31.5075 23.688 31.5075C24.2403 31.5075 24.688 31.0598 24.688 30.5075H22.688ZM20.7536 22.6387C20.7536 22.0864 20.3059 21.6387 19.7536 21.6387C19.2013 21.6387 18.7536 22.0864 18.7536 22.6387H20.7536ZM18.7536 27.5567C18.7536 28.109 19.2013 28.5567 19.7536 28.5567C20.3059 28.5567 20.7536 28.109 20.7536 27.5567H18.7536ZM16.8192 22.6387C16.8192 22.0864 16.3715 21.6387 15.8192 21.6387C15.2669 21.6387 14.8192 22.0864 14.8192 22.6387H16.8192ZM14.8192 30.5075C14.8192 31.0598 15.2669 31.5075 15.8192 31.5075C16.3715 31.5075 16.8192 31.0598 16.8192 30.5075H14.8192ZM12.8848 22.6387C12.8848 22.0864 12.4371 21.6387 11.8848 21.6387C11.3325 21.6387 10.8848 22.0864 10.8848 22.6387H12.8848ZM10.8848 27.5567C10.8848 28.109 11.3325 28.5567 11.8848 28.5567C12.4371 28.5567 12.8848 28.109 12.8848 27.5567H10.8848ZM22.688 22.6387V30.5075H24.688V22.6387H22.688ZM18.7536 22.6387V27.5567H20.7536V22.6387H18.7536ZM14.8192 22.6387V30.5075H16.8192V22.6387H14.8192ZM10.8848 22.6387V27.5567H12.8848V22.6387H10.8848Z" fill="#046FDB"/>
</svg>
