
<svg width="24" height="24" viewBox="0 0 24 24" fill="none" xmlns="http://www.w3.org/2000/svg">
<circle cx="12" cy="12" r="10" stroke="#046FDB" stroke-width="2" stroke-linecap="round" stroke-linejoin="round"/>
<path d="M10.6665 9C10.1142 9 9.6665 9.44772 9.6665 10C9.6665 10.5523 10.1142 11 10.6665 11V9ZM11.9998 10H12.9998C12.9998 9.44772 12.5521 9 11.9998 9V10ZM10.9998 17.3333C10.9998 17.8856 11.4476 18.3333 11.9998 18.3333C12.5521 18.3333 12.9998 17.8856 12.9998 17.3333H10.9998ZM10.6665 16.336C10.1142 16.336 9.6665 16.7837 9.6665 17.336C9.6665 17.8883 10.1142 18.336 10.6665 18.336V16.336ZM13.3332 18.336C13.8855 18.336 14.3332 17.8883 14.3332 17.336C14.3332 16.7837 13.8855 16.336 13.3332 16.336V18.336ZM10.6665 11H11.9998V9H10.6665V11ZM10.9998 10V17.3333H12.9998V10H10.9998ZM10.6665 18.336H13.3332V16.336H10.6665V18.336Z" fill="#046FDB"/>
<circle cx="11.6667" cy="6.66667" r="0.666667" stroke="#046FDB" stroke-width="2" stroke-linecap="round" stroke-linejoin="round"/>
</svg>
