<svg width="40" height="40" viewBox="0 0 40 40" fill="none" xmlns="http://www.w3.org/2000/svg">
<path d="M26 14C32.6274 14 38 19.3726 38 26C38 32.6274 32.6274 38 26 38C19.3726 38 14 32.6274 14 26" stroke="#046FDB" stroke-width="2"/>
<circle cx="14" cy="14" r="12" stroke="#FE4365" stroke-width="2"/>
<path d="M16.9695 11.0002C16.7241 9.55704 15.4741 8.50093 14.0103 8.5C12.3531 8.5 11.0103 9.5932 11.0103 11.2498C11.0103 12.9064 12.5103 13.657 14.0103 14.0002C15.5103 14.3434 17.0103 15.0934 17.0103 16.7506C17.0103 18.4078 15.6675 19.501 14.0103 19.501C12.3534 19.501 11.0103 18.1579 11.0103 16.501" stroke="#FE4365" stroke-width="2"/>
<path d="M15.0107 8.49938V6.80078H13.0107V8.49938H15.0107ZM15.0107 21.1996V19.5004H13.0107V21.1996H15.0107Z" fill="#FE4365"/>
<path d="M26 33.1984V31.498" stroke="#202020" stroke-width="2"/>
<path d="M23 28.4988C23 30.1557 24.3431 31.4988 26 31.4988C27.6572 31.4988 29 30.4056 29 28.7496C29 27.0936 27.5 26.337 26 25.9998C25.3914 25.8727 24.8067 25.6499 24.2678 25.3398" stroke="#046FDB" stroke-width="2"/>
<path d="M28.9581 22.9998C28.8476 22.3466 28.5238 21.7484 28.0371 21.2988" stroke="#046FDB" stroke-width="2"/>
</svg>
