<svg width="32" height="32" viewBox="0 0 32 32" fill="none" xmlns="http://www.w3.org/2000/svg">
<path d="M21.0004 20.05H24.5004C28.0902 20.05 31.0004 17.1399 31.0004 13.55C31.0004 9.96018 28.0902 7.05003 24.5004 7.05003H24.2504C22.7034 3.61851 19.0838 1.61309 15.3541 2.12115C11.6245 2.62922 8.67312 5.52976 8.10038 9.25003C6.051 8.68428 3.85909 9.35034 2.47096 10.9607C1.08283 12.571 0.747101 14.8371 1.60873 16.7807C2.47035 18.7243 4.375 19.9973 6.50038 20.05H11.0004" stroke="#046FDB" stroke-width="2" stroke-linecap="round" stroke-linejoin="round"/>
<path d="M18.7807 18.4255C19.1257 17.9942 19.0558 17.3649 18.6245 17.0199C18.1932 16.6749 17.5639 16.7448 17.2189 17.1761L18.7807 18.4255ZM12.9998 24.0508L12.2189 23.4261C11.9788 23.7263 11.932 24.1375 12.0985 24.484C12.265 24.8304 12.6154 25.0508 12.9998 25.0508V24.0508ZM16.9998 24.0508L17.7781 24.6787C18.0199 24.3789 18.0681 23.9669 17.902 23.6194C17.7359 23.272 17.3849 23.0508 16.9998 23.0508V24.0508ZM11.4215 29.3729C11.0747 29.8027 11.1421 30.4323 11.5719 30.7791C12.0018 31.1259 12.6313 31.0585 12.9781 30.6287L11.4215 29.3729ZM7.48067 23.6755C7.82568 23.2442 7.75576 22.6149 7.3245 22.2699C6.89324 21.9249 6.26395 21.9948 5.91894 22.4261L7.48067 23.6755ZM4.2998 26.0508L3.51894 25.4261C3.2788 25.7263 3.23198 26.1375 3.3985 26.484C3.56502 26.8304 3.9154 27.0508 4.2998 27.0508V26.0508ZM7.2998 26.0508L8.08067 26.6755C8.32081 26.3753 8.36763 25.9641 8.20111 25.6176C8.03459 25.2711 7.68421 25.0508 7.2998 25.0508V26.0508ZM4.11894 28.4261C3.77393 28.8573 3.84385 29.4866 4.27511 29.8316C4.70637 30.1767 5.33566 30.1067 5.68067 29.6755L4.11894 28.4261ZM24.1807 23.6755C24.5257 23.2442 24.4558 22.6149 24.0245 22.2699C23.5932 21.9249 22.9639 21.9948 22.6189 22.4261L24.1807 23.6755ZM20.9998 26.0508L20.2189 25.4261C19.9788 25.7263 19.932 26.1375 20.0985 26.484C20.265 26.8304 20.6154 27.0508 20.9998 27.0508V26.0508ZM23.9998 26.0508L24.7807 26.6755C25.0208 26.3753 25.0676 25.9641 24.9011 25.6176C24.7346 25.2711 24.3842 25.0508 23.9998 25.0508V26.0508ZM20.8189 28.4261C20.4739 28.8573 20.5438 29.4866 20.9751 29.8316C21.4064 30.1767 22.0357 30.1067 22.3807 29.6755L20.8189 28.4261ZM17.2189 17.1761L12.2189 23.4261L13.7807 24.6755L18.7807 18.4255L17.2189 17.1761ZM12.9998 25.0508H16.9998V23.0508H12.9998V25.0508ZM16.2215 23.4229L11.4215 29.3729L12.9781 30.6287L17.7781 24.6787L16.2215 23.4229ZM5.91894 22.4261L3.51894 25.4261L5.08067 26.6755L7.48067 23.6755L5.91894 22.4261ZM4.2998 27.0508H7.2998V25.0508H4.2998V27.0508ZM6.51894 25.4261L4.11894 28.4261L5.68067 29.6755L8.08067 26.6755L6.51894 25.4261ZM22.6189 22.4261L20.2189 25.4261L21.7807 26.6755L24.1807 23.6755L22.6189 22.4261ZM20.9998 27.0508H23.9998V25.0508H20.9998V27.0508ZM23.2189 25.4261L20.8189 28.4261L22.3807 29.6755L24.7807 26.6755L23.2189 25.4261Z" fill="#FDC066"/>
</svg>
