<svg width="48" height="48" viewBox="0 0 48 48" fill="none" xmlns="http://www.w3.org/2000/svg">
<path d="M13.9979 47H8C4.13401 47 1 43.866 1 40V35.2502" stroke="#046FDB" stroke-width="2" stroke-linecap="round"/>
<path d="M34 47H39.9979C43.8639 47 46.9979 43.866 46.9979 40V35.2502" stroke="#046FDB" stroke-width="2" stroke-linecap="round"/>
<path d="M13.9979 1.25025H8C4.13401 1.25025 1 4.38425 1 8.25025V13" stroke="#046FDB" stroke-width="2" stroke-linecap="round"/>
<path d="M34 1.25025H39.9979C43.8639 1.25025 46.9979 4.38425 46.9979 8.25025V13" stroke="#046FDB" stroke-width="2" stroke-linecap="round"/>
<path d="M15.0211 34.0352C15.0211 34.0352 24.0928 42.002 33.0441 34.0352" stroke="#046FDB" stroke-width="2" stroke-linecap="round"/>
<path d="M24.9981 17.1428V26.0333C24.9981 26.0333 25.4111 29.9684 21.0491 29.9684" stroke="#046FDB" stroke-width="2" stroke-linecap="round"/>
<path d="M13 18V22.1253" stroke="#046FDB" stroke-width="4" stroke-linecap="round"/>
<path d="M34 18V22.1253" stroke="#046FDB" stroke-width="4" stroke-linecap="round"/>
</svg>
