<svg width="32" height="32" viewBox="0 0 32 32" fill="none" xmlns="http://www.w3.org/2000/svg">
<path d="M9.41547 18.4748C9.91289 18.7148 10.5107 18.5061 10.7507 18.0087C10.9906 17.5113 10.7819 16.9135 10.2845 16.6735L9.41547 18.4748ZM15.6822 11.44C15.9014 11.9469 16.49 12.1801 16.9969 11.9609C17.5038 11.7417 17.7371 11.153 17.5178 10.6461L15.6822 11.44ZM13 2C13 1.44772 12.5523 1 12 1C11.4477 1 11 1.44772 11 2H13ZM11 5.01435C11 5.56664 11.4477 6.01435 12 6.01435C12.5523 6.01435 13 5.56664 13 5.01435H11ZM4 14.0526C4.55228 14.0526 5 13.6049 5 13.0526C5 12.5003 4.55228 12.0526 4 12.0526V14.0526ZM1 12.0526C0.447715 12.0526 0 12.5003 0 13.0526C0 13.6049 0.447715 14.0526 1 14.0526V12.0526ZM4.90879 4.50989C4.5192 4.11844 3.88604 4.11693 3.49458 4.50652C3.10313 4.89611 3.10162 5.52927 3.49121 5.92073L4.90879 4.50989ZM5.64121 8.08102C6.0308 8.47247 6.66396 8.47398 7.05542 8.08439C7.44687 7.6948 7.44838 7.06164 7.05879 6.67018L5.64121 8.08102ZM20.5088 5.92073C20.8984 5.52927 20.8969 4.89611 20.5054 4.50652C20.114 4.11693 19.4808 4.11844 19.0912 4.50989L20.5088 5.92073ZM16.9412 6.67018C16.5516 7.06164 16.5531 7.6948 16.9446 8.08439C17.336 8.47398 17.9692 8.47247 18.3588 8.08102L16.9412 6.67018ZM7.05879 19.4351C7.44838 19.0436 7.44687 18.4105 7.05542 18.0209C6.66396 17.6313 6.0308 17.6328 5.64121 18.0242L7.05879 19.4351ZM3.49121 20.1845C3.10162 20.576 3.10313 21.2092 3.49458 21.5987C3.88604 21.9883 4.5192 21.9868 4.90879 21.5954L3.49121 20.1845ZM10.2845 16.6735C8.68553 15.9021 7.77984 14.1615 8.06659 12.3963L6.09247 12.0756C5.6645 14.7102 7.01482 17.3166 9.41547 18.4748L10.2845 16.6735ZM8.06659 12.3963C8.35326 10.6316 9.76161 9.27249 11.5198 9.05219L11.2712 7.0677C8.6267 7.39905 6.52052 9.44053 6.09247 12.0756L8.06659 12.3963ZM11.5198 9.05219C13.2777 8.83193 14.9735 9.8014 15.6822 11.44L17.5178 10.6461C16.4583 8.19601 13.9161 6.7363 11.2712 7.0677L11.5198 9.05219ZM11 2V5.01435H13V2H11ZM4 12.0526H1V14.0526H4V12.0526ZM3.49121 5.92073L5.64121 8.08102L7.05879 6.67018L4.90879 4.50989L3.49121 5.92073ZM19.0912 4.50989L16.9412 6.67018L18.3588 8.08102L20.5088 5.92073L19.0912 4.50989ZM5.64121 18.0242L3.49121 20.1845L4.90879 21.5954L7.05879 19.4351L5.64121 18.0242Z" fill="#FDC066"/>
<path d="M31.0004 19.082C31.0004 16.3074 28.7618 14.0581 26.0004 14.0581C24.8514 11.2446 21.9218 9.60026 18.935 10.0924C15.9482 10.5846 13.6948 13.083 13.5004 16.1179H13.0004C11.185 16.1284 9.60423 17.366 9.15039 19.1323" stroke="#046FDB" stroke-width="2" stroke-linecap="round" stroke-linejoin="round"/>
<path d="M9 21.0957C8.44772 21.0957 8 21.5434 8 22.0957C8 22.648 8.44772 23.0957 9 23.0957V21.0957ZM30.95 23.0957C31.5023 23.0957 31.95 22.648 31.95 22.0957C31.95 21.5434 31.5023 21.0957 30.95 21.0957V23.0957ZM11 25.1148C10.4477 25.1148 10 25.5626 10 26.1148C10 26.6671 10.4477 27.1148 11 27.1148V25.1148ZM28.95 27.1148C29.5023 27.1148 29.95 26.6671 29.95 26.1148C29.95 25.5626 29.5023 25.1148 28.95 25.1148V27.1148ZM15 29.134C14.4477 29.134 14 29.5817 14 30.134C14 30.6863 14.4477 31.134 15 31.134V29.134ZM26.95 31.134C27.5023 31.134 27.95 30.6863 27.95 30.134C27.95 29.5817 27.5023 29.134 26.95 29.134V31.134ZM10.05 29.134C9.49772 29.134 9.05 29.5817 9.05 30.134C9.05 30.6863 9.49772 31.134 10.05 31.134V29.134ZM12 31.134C12.5523 31.134 13 30.6863 13 30.134C13 29.5817 12.5523 29.134 12 29.134V31.134ZM9 23.0957H30.95V21.0957H9V23.0957ZM11 27.1148H28.95V25.1148H11V27.1148ZM15 31.134H26.95V29.134H15V31.134ZM10.05 31.134H12V29.134H10.05V31.134Z" fill="#046FDB"/>
</svg>
