<svg width="32" height="32" viewBox="0 0 32 32" fill="none" xmlns="http://www.w3.org/2000/svg">
<path d="M17 4C19.7614 4 22 6.29598 22 9.12821C22 11.9604 19.7614 14.2564 17 14.2564H4C2.34315 14.2564 1 15.634 1 17.3333C1 19.0327 2.34315 20.4103 4 20.4103H16C18.2091 20.4103 20 22.247 20 24.5128C20 26.7786 18.2091 28.6154 16 28.6154" stroke="#046FDB" stroke-width="2" stroke-linecap="round" stroke-linejoin="round"/>
<path d="M13 6.05078C14.1046 6.05078 15 6.96917 15 8.10206C15 9.23496 14.1046 10.1533 13 10.1533H7" stroke="#046FDB" stroke-width="2" stroke-linecap="round" stroke-linejoin="round"/>
<path d="M25 7.10352C24.4477 7.10352 24 7.55123 24 8.10352C24 8.6558 24.4477 9.10352 25 9.10352V7.10352ZM22 15.3086C21.4477 15.3086 21 15.7564 21 16.3086C21 16.8609 21.4477 17.3086 22 17.3086V15.3086ZM28 25.5651C27.4477 25.5651 27 26.0128 27 26.5651C27 27.1173 27.4477 27.5651 28 27.5651V25.5651ZM22 19.4112C21.4477 19.4112 21 19.8589 21 20.4112C21 20.9635 21.4477 21.4112 22 21.4112V19.4112ZM25 9.10352C26.6331 9.10352 28 10.4686 28 12.2061H30C30 9.41203 27.7851 7.10352 25 7.10352V9.10352ZM28 12.2061C28 13.9436 26.6331 15.3086 25 15.3086V17.3086C27.7851 17.3086 30 15.0001 30 12.2061H28ZM25 15.3086H22V17.3086H25V15.3086ZM28 27.5651C30.2329 27.5651 32 25.7157 32 23.4881H30C30 24.6592 29.0809 25.5651 28 25.5651V27.5651ZM32 23.4881C32 21.2605 30.2329 19.4112 28 19.4112V21.4112C29.0809 21.4112 30 22.3171 30 23.4881H32ZM28 19.4112H22V21.4112H28V19.4112Z" fill="#046FDB"/>
</svg>
