<svg width="40" height="40" viewBox="0 0 40 40" fill="none" xmlns="http://www.w3.org/2000/svg">
<path fill-rule="evenodd" clip-rule="evenodd" d="M33.4723 32.9343C29.9679 36.216 25.3778 38 20.5961 38C19.7836 38 18.9656 37.9484 18.1465 37.8438C7.99675 36.5496 0.825265 27.4918 2.15981 17.6523C3.49537 7.81334 12.8367 0.860452 22.9895 2.15512C23.2505 2.18853 23.5085 2.2298 23.7655 2.27304C24.1294 2.33446 24.4269 2.58897 24.5354 2.93143C24.6439 3.27389 24.5445 3.64632 24.2789 3.89494C21.9799 6.04748 20.4127 8.71543 19.6813 11.6831H17.667C18.297 8.80977 19.6199 6.17523 21.5617 3.93277C21.2251 3.91312 20.8901 3.90329 20.5566 3.90329C12.3562 3.90329 5.20449 9.81062 4.10664 17.9005C2.91249 26.6998 9.32572 34.7999 18.403 35.9575C22.8197 36.5196 27.202 35.3625 30.6856 32.7584C27.6272 31.9138 24.9399 30.3533 22.7868 28.301H25.7878C27.8305 29.7972 30.2613 30.8575 32.9588 31.3129C33.3227 31.3743 33.6203 31.6289 33.7287 31.9713C33.8372 32.3133 33.7384 32.6852 33.4723 32.9343Z" fill="#3B5998"/>
<path fill-rule="evenodd" clip-rule="evenodd" d="M37.9999 25.2938C37.9999 24.7686 37.5605 24.3421 37.0182 24.3421H32.349L37.6472 19.1561C37.9254 18.8834 38.008 18.4746 37.8555 18.1203C37.7029 17.7661 37.3456 17.5352 36.9497 17.5352H29.9957C29.4539 17.5352 29.0139 17.9611 29.0139 18.4869C29.0139 19.0126 29.4534 19.4386 29.9957 19.4386H34.5964L29.2983 24.6246C29.02 24.8978 28.9374 25.3061 29.0899 25.6604C29.2425 26.0146 29.5998 26.2455 29.9957 26.2455H37.0182C37.56 26.2455 37.9999 25.8196 37.9999 25.2938Z" fill="#3B5998"/>
<path fill-rule="evenodd" clip-rule="evenodd" d="M26.7337 25.293C26.7337 24.7678 26.2942 24.3413 25.7519 24.3413H17.0893L26.3429 15.283C26.6217 15.0103 26.7038 14.6015 26.5512 14.2473C26.3986 13.893 26.0413 13.6621 25.6455 13.6621H14.7359C14.1936 13.6621 13.7542 14.0881 13.7542 14.6133C13.7542 15.1391 14.1936 15.5651 14.7359 15.5651H23.2921L14.0385 24.6238C13.7597 24.897 13.6776 25.3053 13.8302 25.6595C13.9827 26.0138 14.3401 26.2447 14.7359 26.2447H25.7524C26.2942 26.2447 26.7337 25.8187 26.7337 25.293Z" fill="#3B5998"/>
</svg>
