<svg width="24" height="24" viewBox="0 0 24 24" fill="none" xmlns="http://www.w3.org/2000/svg">
<path d="M17.0463 22H20V5.95833H5.84211C4.82474 5.95833 4 5.07223 4 3.97917C4 2.8861 4.82474 2 5.84211 2H18.5263V5.95833" stroke="#596379" stroke-width="2" stroke-linecap="round" stroke-linejoin="round"/>
<path d="M4 3.83325V20.1201C4 21.1583 4.82081 21.9999 5.83333 21.9999H17.014" stroke="#596379" stroke-width="2" stroke-linecap="round" stroke-linejoin="round"/>
<path d="M13 10C13 9.44772 12.5523 9 12 9C11.4477 9 11 9.44772 11 10H13ZM11 18C11 18.5523 11.4477 19 12 19C12.5523 19 13 18.5523 13 18H11ZM15.605 16.5168C16.0447 16.1827 16.1304 15.5554 15.7962 15.1156C15.4621 14.6759 14.8348 14.5902 14.395 14.9244L15.605 16.5168ZM12 18L11.395 18.7962C11.7526 19.0679 12.2474 19.0679 12.605 18.7962L12 18ZM9.60498 14.9244C9.16523 14.5902 8.53789 14.6759 8.20376 15.1156C7.86964 15.5554 7.95527 16.1827 8.39502 16.5168L9.60498 14.9244ZM11 10V18H13V10H11ZM14.395 14.9244L11.395 17.2038L12.605 18.7962L15.605 16.5168L14.395 14.9244ZM12.605 17.2038L9.60498 14.9244L8.39502 16.5168L11.395 18.7962L12.605 17.2038Z" fill="#596379"/>
</svg>
