<svg width="24" height="24" viewBox="0 0 24 24" fill="none" xmlns="http://www.w3.org/2000/svg">
<path fill-rule="evenodd" clip-rule="evenodd" d="M17.5264 4.958H5.84237C5.37837 4.958 5.00037 4.519 5.00037 3.979C5.00037 3.438 5.37837 3 5.84237 3H17.5264V4.958ZM15.6054 16.517L12.6124 18.79C12.4474 18.918 12.2414 18.996 12.0174 19C12.0074 18.998 12.0054 19 12.0004 19C11.9934 19 11.9844 18.998 11.9834 19H11.9824C11.7584 18.996 11.5524 18.918 11.3874 18.79L8.39537 16.517C7.95537 16.182 7.86937 15.555 8.20337 15.115C8.53837 14.677 9.16537 14.59 9.60537 14.924L11.0004 15.984V10C11.0004 9.447 11.4474 9 12.0004 9C12.5524 9 13.0004 9.447 13.0004 10V15.984L14.3954 14.924C14.8354 14.59 15.4624 14.676 15.7964 15.115C16.1304 15.555 16.0454 16.182 15.6054 16.517ZM20.0004 4.958H19.5264V2C19.5264 1.447 19.0784 1 18.5264 1H5.84237C4.36637 1 3.16337 2.189 3.02637 3.7C3.02037 3.746 3.00037 3.786 3.00037 3.833V20.12C3.00037 21.708 4.27137 23 5.83337 23H17.0144C17.0204 23 17.0244 22.997 17.0304 22.996C17.0364 22.997 17.0404 23 17.0464 23H20.0004C20.5524 23 21.0004 22.552 21.0004 22V5.958C21.0004 5.406 20.5524 4.958 20.0004 4.958Z" fill="#046FDB"/>
</svg>
