<svg width="16" height="16" viewBox="0 0 16 16" fill="none" xmlns="http://www.w3.org/2000/svg">
<path d="M7.85714 3C9.04061 3 10 4.04467 10 5.33333C10 6.622 9.04061 7.66667 7.85714 7.66667H2.28571C1.57563 7.66667 1 8.29347 1 9.06667C1 9.83987 1.57563 10.4667 2.28571 10.4667H7.42857C8.37535 10.4667 9.14286 11.3024 9.14286 12.3333C9.14286 13.3643 8.37535 14.2 7.42857 14.2" stroke="#046FDB" stroke-width="2" stroke-linecap="round" stroke-linejoin="round"/>
<path d="M4.8 3C5.31547 3 5.73333 3.41787 5.73333 3.93333C5.73333 4.4488 5.31547 4.86667 4.8 4.86667H2" stroke="#046FDB" stroke-width="2" stroke-linecap="round" stroke-linejoin="round"/>
<path d="M12.1998 2.86719C11.6475 2.86719 11.1998 3.3149 11.1998 3.86719C11.1998 4.41947 11.6475 4.86719 12.1998 4.86719V2.86719ZM10.7998 6.60052C10.2475 6.60052 9.7998 7.04824 9.7998 7.60052C9.7998 8.15281 10.2475 8.60052 10.7998 8.60052V6.60052ZM13.5998 12.2672C13.0475 12.2672 12.5998 12.7149 12.5998 13.2672C12.5998 13.8195 13.0475 14.2672 13.5998 14.2672V12.2672ZM10.7998 9.46719C10.2475 9.46719 9.7998 9.9149 9.7998 10.4672C9.7998 11.0195 10.2475 11.4672 10.7998 11.4672V9.46719ZM12.1998 4.86719C12.6785 4.86719 13.0665 5.25521 13.0665 5.73385H15.0665C15.0665 4.15064 13.783 2.86719 12.1998 2.86719V4.86719ZM13.0665 5.73385C13.0665 6.2125 12.6785 6.60052 12.1998 6.60052V8.60052C13.783 8.60052 15.0665 7.31707 15.0665 5.73385H13.0665ZM12.1998 6.60052H10.7998V8.60052H12.1998V6.60052ZM13.5998 14.2672C14.9253 14.2672 15.9998 13.1927 15.9998 11.8672H13.9998C13.9998 12.0881 13.8207 12.2672 13.5998 12.2672V14.2672ZM15.9998 11.8672C15.9998 10.5417 14.9253 9.46719 13.5998 9.46719V11.4672C13.8207 11.4672 13.9998 11.6463 13.9998 11.8672H15.9998ZM13.5998 9.46719H10.7998V11.4672H13.5998V9.46719Z" fill="#046FDB"/>
</svg>
