<svg width="80" height="80" viewBox="0 0 80 80" fill="none" xmlns="http://www.w3.org/2000/svg">
<path d="M23.5563 44.9618C24.5525 45.4388 25.7468 45.0179 26.2239 44.0216C26.7009 43.0254 26.28 41.8311 25.2837 41.354L23.5563 44.9618ZM39.6865 27.5358C40.1277 28.5484 41.3063 29.0116 42.3189 28.5703C43.3315 28.1291 43.7947 26.9505 43.3535 25.9379L39.6865 27.5358ZM31.8667 4C31.8667 2.89543 30.9712 2 29.8667 2C28.7621 2 27.8667 2.89543 27.8667 4H31.8667ZM27.8667 11.5789C27.8667 12.6835 28.7621 13.5789 29.8667 13.5789C30.9712 13.5789 31.8667 12.6835 31.8667 11.5789H27.8667ZM9.6 33.7895C10.7046 33.7895 11.6 32.894 11.6 31.7895C11.6 30.6849 10.7046 29.7895 9.6 29.7895V33.7895ZM2 29.7895C0.89543 29.7895 0 30.6849 0 31.7895C0 32.894 0.89543 33.7895 2 33.7895V29.7895ZM11.5189 10.668C10.7368 9.88807 9.47046 9.88983 8.69049 10.672C7.91053 11.4541 7.91228 12.7204 8.69442 13.5004L11.5189 10.668ZM14.1411 18.932C14.9232 19.7119 16.1895 19.7102 16.9695 18.928C17.7495 18.1459 17.7477 16.8796 16.9656 16.0996L14.1411 18.932ZM51.0389 13.5004C51.821 12.7204 51.8228 11.4541 51.0428 10.672C50.2629 9.88983 48.9965 9.88807 48.2144 10.668L51.0389 13.5004ZM42.7677 16.0996C41.9856 16.8796 41.9839 18.1459 42.7638 18.928C43.5438 19.7102 44.8101 19.7119 45.5923 18.932L42.7677 16.0996ZM16.9656 47.4793C17.7477 46.6994 17.7495 45.433 16.9695 44.6509C16.1895 43.8688 14.9232 43.867 14.1411 44.647L16.9656 47.4793ZM8.69442 50.0786C7.91228 50.8585 7.91053 52.1249 8.69049 52.907C9.47046 53.6891 10.7368 53.6909 11.5189 52.9109L8.69442 50.0786ZM25.2837 41.354C21.0164 39.3107 18.6139 34.7109 19.3752 30.0592L15.4277 29.4131C14.3785 35.8238 17.6911 42.1534 23.5563 44.9618L25.2837 41.354ZM19.3752 30.0592C20.1367 25.4069 23.8825 21.8056 28.5821 21.2211L28.0885 17.2517C21.6345 18.0543 16.4769 23.003 15.4277 29.4131L19.3752 30.0592ZM28.5821 21.2211C33.2821 20.6367 37.802 23.2108 39.6865 27.5358L43.3535 25.9379C40.7586 19.9826 34.542 16.4492 28.0885 17.2517L28.5821 21.2211ZM27.8667 4V11.5789H31.8667V4H27.8667ZM9.6 29.7895H2V33.7895H9.6V29.7895ZM8.69442 13.5004L14.1411 18.932L16.9656 16.0996L11.5189 10.668L8.69442 13.5004ZM48.2144 10.668L42.7677 16.0996L45.5923 18.932L51.0389 13.5004L48.2144 10.668ZM14.1411 44.647L8.69442 50.0786L11.5189 52.9109L16.9656 47.4793L14.1411 44.647Z" fill="#FDC066"/>
<path d="M77.9998 46.947C77.9998 39.9708 72.3288 34.3154 65.3332 34.3154C62.4224 27.2415 55.0007 23.1072 47.4342 24.3446C39.8677 25.5821 34.159 31.8638 33.6665 39.4944H32.3998C27.8007 39.5208 23.7962 42.6325 22.6465 47.0733" stroke="#046FDB" stroke-width="4" stroke-linecap="round" stroke-linejoin="round"/>
<path d="M22.2666 52.5254C21.162 52.5254 20.2666 53.4208 20.2666 54.5254C20.2666 55.63 21.162 56.5254 22.2666 56.5254V52.5254ZM77.8733 56.5254C78.9778 56.5254 79.8733 55.63 79.8733 54.5254C79.8733 53.4208 78.9778 52.5254 77.8733 52.5254V56.5254ZM27.3333 62.6307C26.2287 62.6307 25.3333 63.5261 25.3333 64.6307C25.3333 65.7352 26.2287 66.6307 27.3333 66.6307V62.6307ZM72.8066 66.6307C73.9112 66.6307 74.8066 65.7352 74.8066 64.6307C74.8066 63.5261 73.9112 62.6307 72.8066 62.6307V66.6307ZM37.4666 72.7359C36.362 72.7359 35.4666 73.6313 35.4666 74.7359C35.4666 75.8405 36.362 76.7359 37.4666 76.7359V72.7359ZM67.7399 76.7359C68.8445 76.7359 69.7399 75.8405 69.7399 74.7359C69.7399 73.6313 68.8445 72.7359 67.7399 72.7359V76.7359ZM24.9266 72.7359C23.822 72.7359 22.9266 73.6313 22.9266 74.7359C22.9266 75.8405 23.822 76.7359 24.9266 76.7359V72.7359ZM29.8666 76.7359C30.9712 76.7359 31.8666 75.8405 31.8666 74.7359C31.8666 73.6313 30.9712 72.7359 29.8666 72.7359V76.7359ZM22.2666 56.5254H77.8733V52.5254H22.2666V56.5254ZM27.3333 66.6307H72.8066V62.6307H27.3333V66.6307ZM37.4666 76.7359H67.7399V72.7359H37.4666V76.7359ZM24.9266 76.7359H29.8666V72.7359H24.9266V76.7359Z" fill="#046FDB"/>
</svg>
